<svg width="16" height="16" viewBox="0 0 16 16" fill="none" xmlns="http://www.w3.org/2000/svg">
<path fill-rule="evenodd" clip-rule="evenodd" d="M2.21301 9.1915C2.16649 9.24969 2.18103 9.30498 2.21883 9.36026C2.25372 9.30207 2.26535 9.24678 2.21301 9.1915ZM2.85275 11.0013C2.84984 10.9751 2.84984 10.9402 2.81204 10.9373C2.8004 10.9373 2.78005 10.9606 2.78005 10.9751C2.77714 11.0042 2.79168 11.0333 2.82367 11.0391C2.83239 11.0391 2.84402 11.0159 2.85275 11.0013ZM1.94549 8.71431C1.94258 8.74341 1.94549 8.77542 1.97747 8.78706C2.01237 8.79869 2.03272 8.77542 2.03854 8.74341C2.04436 8.71431 2.03854 8.68231 2.00655 8.67067C1.97166 8.65903 1.9513 8.6794 1.94549 8.71431ZM1.66342 7.79485C1.63725 7.87924 1.6169 7.96653 1.6925 8.05964C1.74775 7.95198 1.74484 7.87051 1.66342 7.79485ZM4.23108 8.37388C4.41428 8.48154 4.49861 8.6503 4.54222 8.85107C4.59166 9.07511 4.69925 9.27879 4.78939 9.47665C4.87372 9.49702 4.89989 9.44464 4.92897 9.40391C5.16742 9.05766 5.39132 8.70558 5.6414 8.37097C5.81587 8.13529 6.01361 7.91706 6.21135 7.70465C6.38873 7.51553 6.59519 7.3584 6.73477 7.13145C6.79874 7.02961 6.91215 6.95687 7.00811 6.8754C7.05463 6.83466 7.12442 6.80847 7.1535 6.75901C7.30471 6.50005 7.55188 6.3342 7.75252 6.1247C8.25268 5.60387 8.78191 5.11504 9.33441 4.6524C9.61357 4.41963 9.90726 4.18976 10.1632 3.93953C10.4394 3.66893 10.8116 3.51472 11.0297 3.18592C11.0471 3.15974 11.0704 3.13646 11.0966 3.119C11.7392 2.71165 12.2975 2.18499 12.9576 1.80674C13.3269 1.59724 13.6875 1.37319 14.0394 1.13751C14.1702 1.05022 14.3709 1.07932 14.4697 1.00657C14.6035 0.907646 14.7489 0.890188 14.8419 0.930923C15.0077 1.00657 15.0629 0.916375 15.1502 0.799988C15.2287 0.86982 15.1763 1.06768 15.3566 1.0153C15.4061 1.00076 15.4061 1.06186 15.4322 1.09096C15.5166 1.1957 15.4904 1.39647 15.7143 1.38483C15.7812 1.38192 15.7812 1.6467 15.6939 1.75436C15.6503 1.80965 15.6009 1.85911 15.5602 1.92021C15.3741 2.20245 15.2723 2.49633 15.3392 2.83676C15.3537 2.91532 15.3363 3.00261 15.3275 3.08699C15.3188 3.19756 15.2578 3.28194 15.1851 3.3605C15.0949 3.45652 14.8129 3.31977 14.8885 3.61074C14.7809 3.72421 14.6791 3.84351 14.5657 3.95117C14.4436 4.06465 14.3098 4.16358 14.1877 4.27705C14.0713 4.3818 13.9638 4.49528 13.8503 4.60585C13.7282 4.72223 13.609 4.83862 13.4869 4.9521C13.1961 5.21979 12.9256 5.51076 12.6203 5.76681C12.4342 5.92393 12.2946 6.14507 12.1172 6.32256C11.4368 6.9976 10.7738 7.69593 10.1632 8.43789C10.0323 8.59793 9.8462 8.7114 9.72988 8.88598C9.67754 8.96164 9.59612 9.02565 9.64264 9.13331L9.64555 9.1304C9.54959 9.1624 9.43909 9.17113 9.37803 9.27006C9.17157 9.59304 8.86333 9.82872 8.63652 10.1313C8.47949 10.3437 8.32247 10.5561 8.20324 10.7918L8.21488 10.7773C8.09565 10.8035 8.00842 10.8675 7.95026 10.978C7.8921 11.0886 7.84267 11.2283 7.76415 11.2981C7.47337 11.5571 7.32216 11.8946 7.16513 12.2321C6.76094 12.4649 6.72023 12.9828 6.35674 13.2592C6.22879 13.3553 6.18518 13.5647 6.10666 13.7248C6.01943 13.9052 5.91474 14.071 5.76935 14.2107C5.54253 14.4289 5.46111 14.7286 5.31572 14.9934C5.26629 15.0807 5.23139 15.1563 5.09763 15.1767C4.78939 15.2174 4.7923 15.2378 4.67889 14.9323C4.64982 14.8537 4.61492 14.7781 4.54804 14.7228C4.44626 14.6384 4.40265 14.5162 4.36484 14.3998C4.32413 14.2689 4.30669 14.135 4.16711 14.0652C4.14966 14.0565 4.13221 14.0361 4.1293 14.0187C4.10023 13.8935 4.10895 13.7626 3.96065 13.6782C3.85887 13.62 3.78908 13.5066 3.70475 13.4193C3.63206 13.4629 3.68149 13.524 3.65532 13.5677C3.6117 13.6433 3.55645 13.6899 3.48376 13.6055C3.32673 13.4251 3.15226 13.2534 3.19297 12.9799C3.2046 12.9043 3.18134 12.8373 3.14353 12.7704C3.00977 12.5318 2.92253 12.2787 2.97778 11.9964C2.82076 11.9295 2.74806 12.0808 2.63465 12.0954C2.54742 11.9964 2.60558 11.8917 2.62593 11.7928C2.66373 11.5978 2.63756 11.4203 2.53288 11.2486C2.41075 11.045 2.34387 10.8326 2.41075 10.5911C2.42529 10.5445 2.42529 10.4805 2.40493 10.4368C2.27699 10.175 2.23918 9.884 2.1345 9.56685C2.05889 9.74143 2.16067 9.86364 2.15195 9.98875C2.05599 9.98875 2.05599 9.90437 2.04145 9.84618C1.95712 9.49702 1.76229 9.17404 1.76811 8.8016C1.59363 8.67358 1.68087 8.47281 1.63434 8.30987C1.59363 8.1702 1.44242 8.08873 1.40171 7.94034C1.39299 7.90542 1.32029 7.87924 1.32029 7.85305C1.34065 7.597 1.14291 7.39914 1.14291 7.146C1.14291 7.02379 1.1022 6.90158 1.05858 6.78229C0.942269 6.44767 0.849217 6.10724 0.796875 5.74644C0.904467 5.73771 0.91319 5.88029 1.00915 5.85992C0.9539 6.07232 1.00043 6.25854 1.14582 6.44767C1.22143 6.20326 1.08476 6.04323 1.00624 5.86574C0.977164 5.62714 0.933545 5.39437 0.878296 5.15869C0.811414 4.87645 0.994611 4.63494 1.27958 4.59421C1.44824 4.57093 1.61108 4.58257 1.7652 4.66404C1.90478 4.73969 2.05599 4.8328 2.1723 4.5622C2.11996 4.82698 2.21883 4.96083 2.40784 5.04812C2.45146 5.06849 2.48344 5.12086 2.50962 5.16451C2.76842 5.57768 3.01849 5.99376 3.21914 6.43894C3.55354 7.18091 3.89086 7.91997 4.21363 8.66776C4.30669 8.88598 4.39101 9.11003 4.48407 9.33117C4.51314 9.39809 4.53059 9.46792 4.644 9.55812C4.55095 9.10421 4.32995 8.75505 4.2369 8.36515L4.23108 8.37388Z" fill="url(#paint0_linear)"/>
<defs>
<linearGradient id="paint0_linear" x1="8.27952" y1="0.799988" x2="8.27952" y2="15.1996" gradientUnits="userSpaceOnUse">
<stop stop-color="#FF8B00"/>
<stop offset="1" stop-color="#FF5C00"/>
</linearGradient>
</defs>
</svg>
