<?xml version="1.0" encoding="utf-8"?>
<!-- Generator: Adobe Illustrator 19.0.0, SVG Export Plug-In . SVG Version: 6.00 Build 0)  -->
<svg version="1.1" id="Layer_1" xmlns="http://www.w3.org/2000/svg" xmlns:xlink="http://www.w3.org/1999/xlink" x="0px" y="0px"
	 viewBox="0 0 612 792" enable-background="new 0 0 612 792" xml:space="preserve">
<g>
	<path fill="#FEFEFE" d="M487,397c0,96.7,0,193.3,0.1,290c0,3.4-0.7,4.1-4.1,4.1c-117.3-0.1-234.7-0.1-352,0c-3.4,0-4.1-0.7-4.1-4.1
		c0.1-193.7,0.1-387.3,0-581c0-3.4,0.7-4.1,4.1-4.1c117.3,0.1,234.7,0.1,352,0c3.4,0,4.1,0.7,4.1,4.1C487,203,487,300,487,397z"/>
	<path fill="#3B1E17" d="M180.9,437.3c-3.1-13.2-2.6-26.5,0.2-39.6c3.3-15.1,7.2-30.1,14.3-44c1-2,0.3-3.5-0.1-5.2
		c-5.6-21.8-10.4-43.7-11.3-66.3c-0.4-9.7-0.3-19.3,2.1-28.8c2.7-10.9,8.5-14.2,19.2-11.2c11.6,3.2,20.5,10.8,29.2,18.6
		c8.9,7.8,16.8,16.7,24.2,25.9c1.2,1.5,2.1,3,4.8,2c29.3-10.2,58.6-8.6,87.7,1c3.9,1.3,5.7,0.5,8.2-2.5c11-13.7,22.8-26.5,37.3-36.7
		c6.2-4.3,12.8-7.9,20.1-9.6c7.8-1.9,12.7,0.8,15,8.4c3.3,10.8,3.2,22.1,2.8,33.2c-1,22.9-5.7,45.2-11.8,67.3
		c-0.8,2.8-0.6,5,0.6,7.6c7.9,16.9,14.7,34.2,16.9,53c1.2,10-0.2,19.5-3.2,29c-1.7-1-2.1-2.6-2.4-4.4c-0.4-2.7,0.5-5.3,0.9-7.9
		c2.8-18.5-3.1-35.4-9.4-52.3c-2.1-5.6-4.8-10.9-7.2-16.4c-1.3-2.9-1.4-5.6-0.6-8.7c3.9-14.6,7.6-29.2,9.7-44.2
		c2.3-16.1,3.6-32.3,1.2-48.6c-0.1-0.6,0-1.4-0.9-1.6c-0.6-0.3-1.2-0.7-1.4-1.3c-2.6-8.6-8-8.1-14.3-5.8c-2.8,1-5.4,2.5-8,3.8
		c-5.6,2.9-10,7.5-15.4,10.5c-1.6,0.1-2.8,1-3.9,2c-4.3,4.3-8.7,8.7-13,13c-1.1,1.1-2,2.2-2.1,3.8c-1.4,3-3.4,5.5-6.2,7.4
		c-0.5,0.4-0.1-0.3-0.4,0.3c-4.9,7.3-11.2,6.3-17.9,3.2c-0.6-0.3-1.3-0.4-1.9-0.6c-9.8-3.2-20-4.6-30.3-5.4c-16.8-1.4-33,0.6-48.9,6
		c-3.3,1.1-6.2,0.6-8.9-1.3c-3.5-1.9-5.6-5.2-8.1-8c-8.6-9.8-17.7-19-28.2-26.8c-4.2-3.1-8.7-5.5-13.5-7.5
		c-5.5-2.3-10.7-2.4-15.1,2.3c-3.5,4.5-3.1,10-3.8,15.2c-0.5,3.4-0.3,7-0.1,10.5c1.2,18.9,3.2,37.8,8,56.2
		c1.4,5.3,2.6,10.7,4.1,15.9c0.6,2.2,0.6,4.3,0.3,6.4c0,1.1-0.3,2.1-0.9,3c-0.4,0.7-1,1.1-1.7,1.6c-4.4,9.3-6.8,19.3-9.8,29.1
		c-3,9.5-3.9,19.4-4.8,29.3c-0.4,4.5,1.3,9.2,0.5,13.8C182.5,433.8,182.6,436,180.9,437.3z"/>
	<path fill="#3E1A10" d="M180.9,437.3c0.1-1.8,0.1-3.7,1.1-5.3c2.7,0.3,2,2.5,2.3,4.1c1.5,9.2,4.3,17.9,10.3,25.2
		c5.1,4.7,9.2,10.4,14.1,15.3c11.5,11.6,24.8,20.5,39.7,26.9c3.1,1.3,6.7,2.1,9,5.1c7.7,4.2,16.2,5.7,24.6,7.4
		c27.6,5.7,54.4,2.9,80.2-8.3c1.9-2.8,5-3.6,7.9-4.9c18.7-8.9,35.1-20.7,47.9-37.2c2-2.6,3.7-5.5,5.4-8.4c0.3-0.3,0.7-0.6,1.2-0.7
		c4.8-4.3,6.3-10.4,8.4-16.2c0.7-1.9-0.2-4.8,3-5.3c0.4,1.4,0.8,2.9,1.1,4.3c-3.7,16.1-12.6,29.3-24.1,40.7
		c-36.7,36-99.3,58-162.9,30.7c-19.8-8.5-37.8-19.7-51.8-36.5C189.5,463.4,183,451.3,180.9,437.3z"/>
	<path fill="#FBC35C" d="M388.9,261.7c5.2-3.3,9.6-7.7,15.1-10.5c3.9-0.8,7.2-3,10.9-4.3c7.7-2.8,13.5,2.8,12.4,9.9
		c-0.4,0.4-0.9,0.6-1.4,0.5c-7.6-4.1-14.7-1.6-21.4,2.1c-12.8,7-23.8,16.5-33.5,27.4c-3.5,4-7.1,8-10.5,12c-3.3,4-7,4.7-12,3
		c-15.9-5.5-32.4-7.9-49.1-7.4c-11.3,0.3-22.7,1.5-33.3,5.6c-5.4,2.1-9.2,1.4-12.6-3.1c-1-1.3-2.3-2.4-3.3-3.8
		c-10.9-12.2-22-24-36.4-32.3c-3.5-2-7.1-3.6-10.9-4.8c-4.8-1.5-9.2-1.4-12.9,2.4c-0.8,0.2-1.5,0.1-2.1-0.4c0.6-2.8,0.3-6.1,3.2-8.1
		c3.1-4.7,7.4-5,12.3-3.6c9.9,2.8,17.8,8.8,25.4,15.3c10.1,8.5,18.5,18.6,27.2,28.4c2.3,0.9,3.2,4,6.2,3.8c14.5-5.4,29.6-7.6,45-7.3
		c14.4,0.3,28.4,2.9,42.1,7.1c2.5,0.8,4.9,2.2,7.7,1.7c3-1.9,3.8-5.9,7.1-7.4c2.1-2.2,4.4-4.3,5.8-7.1c0.6-3,3.2-4.5,5.2-6.3
		C379.6,270.3,383.2,264.9,388.9,261.7z"/>
	<path fill="#FDB322" d="M190,258c2.7-4.2,6-5.1,12.1-3.4c11.4,3.1,20.7,9.8,29.2,17.5c6.9,6.2,13.7,12.7,19.5,20
		c2.3,10.6-2.2,18.3-10.4,24.4c-4.3,3.2-7.7,7.3-11.6,10.9c-1.8,1.7-3.4,3.7-6.1,3.9c-1.9-0.7-1.8-2.3-1.8-3.8
		c0.5-2.8,2.8-4.3,4.6-6.3c5.1-5.6,11.3-10.1,15.5-16.6c3.7-3.1,3-5.9,0.2-9.5c-5.9-7.5-13-13.3-21-18.1c-3.6-2.4-8.3-3.1-11-6.9
		c-1.8-3.4-3.3-7-6.3-9.6c-3-2.6-5.5-2.1-7.1,1.5c-1.7,3.9-2.2,8-2.4,12.2c-0.4,8.2,0,16.3,1.8,24.4c3.2,14.3,5.9,28.7,9.3,43
		c0.1,0.3,0.2,0.6,0.3,0.9c3.2,7.9,2.7,15-1.2,23.1c-5.8,12.2-9.5,25.5-11.7,39.1c-1.2,7.3-0.2,14.6-0.4,21.9
		c-1.7,1.9-2.3,5.4-6.1,4.1c-2.8-5.7-2-11.7-1.5-17.6c1.7-19.1,7.4-37.3,14.3-55.1c0.2-0.7,0.4-1.4,0.6-2.1c-0.2-1.8,1.7-2,2.3-3.1
		c-1-5.9-3-11.5-4.3-17.3c-3.4-15.1-6.6-30.1-7.3-45.6c-0.1-1.4-0.6-2.6-0.8-3.9c-0.4-7.8-0.3-15.6-0.2-23.4
		C188.6,260.9,188.8,259.3,190,258z"/>
	<path fill="#1B0C15" d="M436,435c-2.2,7.5-4.9,14.8-8.8,21.6c-0.6,1-0.6,1-2.1,0.5c-0.8-3.3,2.1-5.4,2.9-8.2c0.9-3,2.3-5.9,3.1-8.9
		c5.9-17.5,3.7-34.7-1.6-51.8c-2.8-8.9-6.3-17.5-10.4-25.9c-2.6-5.3-3.4-10.4-1.6-16.3c5.2-17.4,7.9-35.3,9.9-53.2
		c0.8-7.2,1.8-14.5,1.3-21.8c-0.1-3.6,0.5-7.3-0.6-10.9c-0.3-1.8-0.3-3.5,0.9-5c0.1-0.6,0.2-1.3,0.3-1.9c2.7,10.8,3.5,21.8,2.5,32.8
		c-1.2,13-3,25.9-5.6,38.7c-1.4,7.1-3,14.3-5.4,21.1c-2.7,7.6,0.1,13.4,3,19.7c5.6,11.9,9.7,24.2,12.5,37.1
		C438.6,413.5,437.7,424.2,436,435z"/>
	<path fill="#1B0B13" d="M194.1,461.8c-2.1,1.5-2-0.8-2.5-1.6c-4.5-8.3-8.5-16.8-8.8-26.5c0-0.6-0.6-1.1-0.9-1.7
		c-2.7-24.2,4.4-46.6,12.1-68.9c0.5-1.5,1.5-2.9,2.2-4.3c0,0,0.3,0,0.5,0.1c0.1,0.1,0.2,0.2,0.3,0.4c-0.4,6.2-3.3,11.7-5.1,17.5
		c-4.4,14.6-8.2,29.3-8.1,44.7c0,3.7,1.3,7.2,1.3,10.8c1.1,8.4,3.5,16.3,7.2,23.9C193.2,458,194.5,459.6,194.1,461.8z"/>
	<path fill="#211216" d="M201.8,353.7c-1,0.7-2,1.5-3,2.2c0.3-5.3-1.5-10.2-2.8-15.2c-4.9-18.8-8.3-37.8-9.3-57.2
		c-0.5-10-1.1-19.8,1.3-29.6c0.6-2.7,0.7-2.6,3-3.8c-1.7,2.4-1.8,5.3-2.9,8c1.1,1.6,1,3.5,0.8,5.3c-0.8,7.7,0.4,15.4,0.1,23.1
		c1.3,11,2.2,22.1,4.6,33c2.3,10.5,4.9,21,7.8,31.4C201.7,351.8,202.1,352.7,201.8,353.7z"/>
	<path fill="#231111" d="M261,295.1c-3.3,0-3.3-3.4-5.1-5c5.1,3.1,9.7,0.3,14.5-1.1c8.8-2.6,17.8-3.4,26.9-4.2
		c14.9-1.3,29.3,1.1,43.7,4.4c1.4,0.3,3,0.5,4,1.8c-0.6,0.7-1.4,0.9-2.3,1c-6.3-0.5-12.3-2.7-18.6-3.5
		C302.5,285.6,281.4,286.8,261,295.1z"/>
	<path fill="#F1CB27" d="M184.4,433.1c-2.6-14.9-0.7-29.5,3.2-43.9c2.7-10.1,6-20.1,9.5-29.9c0.4-0.4,0.7-0.8,1.1-1.2
		c1.6,1.7,0,3.1-0.5,4.5c-6.6,19.2-13,38.5-12.7,59.1c0,3.1,0.6,6.2,1,9.3c0.6,0.3,1.2,0.7,1.2,1.5
		C186.5,433.8,185.6,434,184.4,433.1z"/>
	<path fill="#F4DE67" d="M429,255.1c0,1.7,0.1,3.4,0.1,5.1c0.2,0.5,0.1,0.8-0.3,1.1c-0.5,0-0.9-0.1-1.3-0.4
		c-0.8-1.2-1.6-2.3-0.6-3.8c-0.3-8.6-4.4-11.4-12.5-9.2c-3.5,1-6.3,4.1-10.4,3.3c2.8-2,5.9-3.5,9.2-4.6
		C422,243.7,425.1,245.4,429,255.1z"/>
	<path fill="#190C0D" d="M388.9,261.7c-6.4,6.4-12.8,12.8-19.1,19.2c-1.1-1-0.4-1.8,0.3-2.5c5.4-5.5,10.9-10.9,16.4-16.4
		C387.1,261.4,387.9,260.7,388.9,261.7z"/>
	<path fill="#221311" d="M342.7,291.2c0.8-0.1,1.6-0.1,2.3-0.2c0.8,0.1,1.7,0,2.5,0.3c5.7,2.4,11.3,4.4,15-3.2c0.3-0.6,1-0.8,1.6,0
		c-2.1,2.6-4.2,5.2-6.3,7.8C352.1,296.4,347.2,294.2,342.7,291.2z"/>
	<path fill="#FEFEFE" d="M184.4,433.1c0.9-0.3,1.9-0.6,2.8-0.9c4.5-3.6,10.2-3,15.2-3.2c16.1-0.5,31.3,3.1,44.7,12.6
		c1.9,1.4,3.7,2.9,5.3,4.6c1.9,1.9,3.1,2,4.3-0.8c3.7-8.6,8.2-16.7,15.9-22.5c3.3-2.5,0.4-4.3-0.8-6.2
		c-10.2-10.4-22.9-15.9-37.2-17.1c-6.3-0.5-12.7,0.4-16.7,6.7c-0.6,1-1.5,2.2-2.7,1.6c-1.5-0.7-0.8-2.3-0.5-3.6
		c0.9-3.4,3.2-5.7,6.3-7.3c4.2-2.2,8.7-2.9,13.3-3.3c-0.1-4.8-2.9-10.3,3.5-13.4c2.8,1.2,1.9,3.4,1.7,5.5c-1,8-0.9,8.1,6.6,10.4
		c9.3,2.8,17.8,7.1,25.2,13.6c1.7,2.1,3.6,4,5.5,6c1.3,2.2,2.8,2,4.9,1c14.6-7.1,29.6-8,44.8-2c2.5,1,4.9,2.1,7.1,3.6
		c1.6,1.1,3,1.3,4.2-0.6c1.9-2.8,4.3-5.3,6.7-7.6c7.5-6.5,16.1-11,25.4-14.1c5.5-1.8,5.9-2.5,4.9-8.2c-0.4-2.4-1.9-5.4,2.2-6.3
		c3,1.1,3.4,3.8,3,6.2c-0.8,5.1,1.3,6.4,6.1,6.6c5.5,0.3,10.9,2,14.1,7.3c0.8,1.3,1.6,2.6,1.5,4.1c0,0.8-0.2,1.7-1.1,2.1
		c-0.8,0.3-1.3-0.2-1.7-0.7c-8.4-11-19.3-8.3-30-5.2c-10.6,3.1-19.5,9.1-26.9,17.3c-3,2.7-1.1,4.7,1,6.5c6.4,5.7,11,12.7,13.8,20.7
		c1,2.8,2.1,5.6,1.5,8.6c-0.5,1.7,0.5,1.7,1.8,1.8c4.7,0.6,7.3,3.5,6.8,7.4c-0.5,4.1-3.3,6.1-8.4,5.7c-5.2-0.4-9.5-2.9-13.5-6
		c-3-2.3-6.1-4.7-8.9-7.2c-4.5-3.9-9.7-6.2-15.4-7.8c-0.5-0.6-0.6-1.4-0.4-2.1c2.8-4.1,4.9-8.6,5.9-13.6c0.8-4.2,0.1-7.9-3.3-10.8
		c-1.7-1.2-3.5-1.7-5.6-1.7c-5.8,0.2-11.5,0.6-17.3-0.3c-1.8-0.3-3.5,0.6-5.2,1.3c-4.3,2.4-5,6.1-4.5,10.6
		c0.7,5.6,3.8,10.1,5.7,15.2c-0.3,0.4-0.6,1-1,1c-10.3,2.1-17.2,9.8-25,15.8c-3,2.3-6.2,4.6-10.1,5.2c-5.7,0.9-9.5-1.3-10.1-5.6
		c-0.6-4.4,2.6-7.3,8.4-7.7c-4.6-0.1-9.8,3.3-11.2,7.3c-1.3,3.9,0.9,7.5,7,11.4c11.9,6.9,24.6,5.9,37.4,3.5
		c4.1-0.8,7.7-0.8,11.7,0.7c4.4,1.6,9.1,1.8,13.5-0.7c2.4-1.4,4.8-0.9,7.2-0.3c11,2.6,22,3.1,33-0.3c3.6-0.6,6.3-2.8,9.1-5
		c6.2-4.9,5.8-10.3-0.6-15c-2.1-1.6-5.3-1.2-6.7-3.9c1.8-6,6.4-9.7,11.1-12.9c18.3-12.5,38.4-15.4,59.8-10.6c3.5,0.8,4.5,2.8,3,6.2
		c-0.5,1.1-1.1,2.4-0.6,3.8c-1.3,5.8-4,11-6.9,16.1c-0.3,0-0.6,0-1,0.1c-6.2,6-11.4,12.8-18.2,18.3c-23.8,19.3-50.9,31.4-81.2,34.3
		c-43.3,4.3-82.2-8.2-115.9-36c-4.2-3.5-8.1-7.5-11.4-11.8c-1.5-2-3-4.1-5.4-5C187.5,449.7,185.1,441.6,184.4,433.1z"/>
	<path fill="#EAECEC" d="M192,457c1.1-1,1.7-1.9,3.2,0.1c12,16.2,27.9,27.8,46,36.4c19.6,9.3,40.2,14.8,62.2,15.7
		c37.5,1.5,70.1-10.9,99.7-32.9c7.2-5.4,13.4-11.9,18.8-19.1c0.9-1.1,1.6-2.8,2.2,0.1c-2.2,7.3-7.5,12.4-12.5,17.7
		c-12.8,13.7-28.4,23.5-45.4,31c-1.2,0.5-2.3,1.2-3.5,1.8c-9,4.9-18.9,6.9-28.8,9.2c-12,2.7-24.1,2.6-36.2,1.8
		c-13.4-0.9-26.5-3.7-39.2-8.5c-0.7-0.3-1-0.8-1.2-1.5c-14.7-6.3-28.9-13.2-41.2-23.6c-8.3-7-15.4-15-22-23.6
		C193.4,460.2,192.7,458.6,192,457z"/>
	<path fill="#270F0B" d="M257.3,508.9c18.2,7.3,37.3,9.9,56.8,9.4c16.8-0.4,32.8-4.8,48.5-10.4c-1.1,2-1.3,2.2-3.3,2.9
		c-20.3,7.8-41.3,10.9-62.9,9.1c-13.3-1.1-26.4-4.5-39-9.1C257.1,510.5,253.7,510,257.3,508.9z"/>
	<path fill="#FDA625" d="M275.9,416.1c-1.9-2-3.8-4-5.7-5.9c0.6-2.3,1.9-3.3,4.3-2.4c2.5,0.9,5.1,1.7,7.3,1.2
		c-5.1,0.5-9.5-2.3-14-4.9c-8-4.8-15.1-10.9-22.1-17c-2.5-2.2-5.3-4-7.2-6.8c0,0-0.3,0.1-0.4,0.2c-0.1,0.1-0.1,0.3-0.1,0.5
		c-3.5,3-3.9,7.1-1.4,14.4c-9,0.4-18.3,0.2-21.2,11.7c3.9-7.6,10.9-9.2,18.4-8.7c15.1,1,28.3,6.6,38.9,17.8c-0.2,3.4-2.1,6-4.1,8.3
		c-3.9,4.3-7.3,9-10.6,13.8c-2,2.9-4.6,4.8-8,2.7c-10.6-6.4-22-10.7-33.9-13.9c-1.4-0.4-2.9-0.9-3.8-2.3c-2-7-0.7-14,0.9-20.7
		c3.3-13.7,7-27.4,13.7-39.9c1.3-2.4,1.1-4.7,0.4-7.2c-1.9-6.5-3.9-13-5.1-19.8c-0.4-2.1-1.1-4.3,0.7-6.1
		c7.6-7.1,15.3-14.2,22.9-21.5c2.9-2.7,4.3-6.2,4.2-10.3c0-2.4-0.9-5,0.8-7.2c4.6,6.9,9.4,8.9,18.4,5.8c14.2-4.8,29.4-5.7,44.7-4.2
		c13,1.2,25.6,3.7,37.8,7.8c2.4,0.8,4.2,0.3,5.8-1.5c4.2-4.7,8.3-9.5,12.6-14.2c11.6-12.5,24-24,40.2-30.4c5.2-2,10.9-3.7,15.7,1.5
		c0.5,3.5,0.5,7,0,10.4c-0.6,4-2.7,5.1-5.8,2.9c-6.5-4.6-12.6-3.8-19.1-0.1c-9.9,5.6-19.5,11.4-26.6,20.6c-1.8,2.3-3.2,4.7-2.9,7.7
		c0.4,4.8,3.3,8.4,6.7,11.2c7.6,6.3,14,13.5,20.2,21.1c2,2.4,4,4.9,6.8,6.4c1.3,1.2,2.4,0,3.5-0.3c6.5-2.4,9.1-1.1,7.2,4.9
		c-3.6,11.8,1.6,21.4,5.8,31.4c6.5,15.4,11.2,31.2,10.5,48.2c-0.1,2.2,0,4.3,1.3,6.2c0.2,1.6,0.7,3.3-1.1,4.4
		c-23.2-7.7-44.5-3.3-64.4,10c-7,4.7-9.7,4.2-14-3c-2.9-4.9-5.9-9.6-9.7-13.9c-1.6-1.8-3.5-3.7-3.6-6.4
		c12.3-13.9,27.6-21.4,46.5-20.4c5.8,0.3,10.5,2.8,13,8.9c0.1-8.3-6.1-11.5-22.4-12c2.1-4.7,1.5-9.4-0.6-13.9
		c-0.3-0.8,0-1.4,0.7-1.9c-0.8,0.1-1.2,0.9-2,1c-4.9,0.8-9.1,2.8-13,6c-9.1,7.3-18.8,13.7-28.7,19.7c3.2,1.2,6.1,0.2,9.1-0.5
		c1.1-0.3,2.5-0.8,3.2,0.4c0.9,1.5-0.4,2.6-1.4,3.2c-1.6,0.9-0.8,1.1,0.2,1.4c-2.2,2.5-4.4,4.9-6.6,7.4c-2.1,1.7-4.1,1.4-6.4,0.1
		c-16.4-9.1-33.1-9.3-49.9-1.2C280,418.2,278.1,417.5,275.9,416.1z"/>
	<path fill="#FDBE26" d="M433,428c-2.3-1.1-2.1-3.2-2-5.2c1-19.3-4.9-36.9-12.7-54.1c-3.6-8.1-6.9-16.1-3.5-25.2
		c0.3-0.9,0.1-2,0.1-3c0.2-3.1,0.2-5.8-4-2.8c-0.7,0.5-2.1,1.4-3.1,0c-1.2-2.4,0.2-4.5,1.1-6.6c3.9-9.5,7.3-19.1,8.2-29.5
		c1.7-6.3,2-12.7,1.1-19.1c-0.7-2.4-0.3-4.9-0.9-7.3c-1.3-5-2.3-5.6-7.2-4.2c-0.8,0.2-1.5,0.6-2.3,0.9c-5,1.8-9.2,5.3-14.2,7
		c-8.1,3.7-14.4,9.3-18.4,17.3c-0.5,1.5-1.2,2.7-2.8,3.1c-0.5,0-1-0.2-1.3-0.5c-2.5-3.5,0.4-6,2-8.4c4.8-7.1,11.8-11.9,18.9-16.5
		c3.6-2.4,7.6-4,11.3-6.3c6.2-3.7,12.1-2.9,17.4,1.4c3.4,2.7,3.9,0.5,4.3-2c0.6-3.4-0.7-7,1.1-10.3c0.3,0,0.6,0.1,0.9,0.1
		c0.4,1.3,0.7,2.6,1.1,3.9c2.1,6.7,1,13.5,0.8,20.2c-0.9,23.6-5.6,46.7-11.9,69.4c-0.7,2.4-0.4,4.4,0.7,6.7
		c5.6,12.3,11.3,24.5,14.4,37.7c2.1,8.7,3.5,17.6,3,26.6C434.8,423.9,435.3,426.4,433,428z"/>
	<path fill="#F7DD63" d="M342.7,291.2c4.9,1.9,9.7,4,15,4.7c-1.9,2.4-4,0.9-5.9,0.2c-16.3-5.4-33.1-8.5-50.3-8
		c-13.1,0.4-26.1,1.9-38.3,7.3c-0.8,0.4-1.6,0.5-2.2-0.3c1.3-2.7,4.3-3.1,6.5-3.7c18.5-4.8,37.1-7,56.3-3.6
		C330.1,288.9,336.3,290.8,342.7,291.2z"/>
	<path fill="#FEDD28" d="M188.2,287c0.3-9.7-1.2-19.3,0-29c0.6,0,1.2,0,1.8-0.1c0,9.7,0,19.4,0,29.1
		C189.4,287.5,188.8,287.6,188.2,287z"/>
	<path fill="#FDB941" d="M223,331c0.5,9,3.5,17.5,6,26c0.8,2.8,0.7,5-0.7,7.9c-7,14.2-11.8,29.1-14.4,44.7
		c-0.8,5.1-0.8,10.2-0.8,15.4c1.2,2.3,1.4,4.4-2,4.4c-5.6,0-11.3,0.2-16.9,0.5c-1.7,0.1-4.1,0.2-3.1-2.9
		c-2.4-12.1-1.1-24.1,2.5-35.7c3.5-11.7,6-23.7,12.8-34.2c0.7-1.1,0.6-2.1,0.2-3.3c-1.2-3.9-2.3-7.9-3.4-11.9
		c1.3-3.7,4.5-3.8,7.7-4.1c2.6-2.5,3.9-5.9,6.1-8.7c1.1-1.4,1.7-3.2,3.8-3.5c0.8,0.1,1.1,0.8,1.5,1.4C222.1,328.4,221.6,330,223,331
		z"/>
	<path fill="#FCCD4A" d="M211,339.2c-3-0.2-5.8,0.5-7.9,2.8c-3.1-14.9-6.2-29.8-9.5-44.7c-2.3-10.7-2.1-21.4-0.4-32.1
		c0.3-2.1,1.3-4.2,2.4-6c1.5-2.5,4.1-3.1,6.5-1.3c4,3.1,7,7.2,7.9,12.4c-8.1,1.1-9.1,2.2-9.5,11.2c-0.2,4.5-0.1,8.9,0,13.4
		c0.1,13.6,4.8,26,9.7,38.3C210.9,335,212.6,336.9,211,339.2z"/>
	<path fill="#381B17" d="M211,339.2c-4.6-12-9.6-23.9-11.5-36.8c-0.3-2.5-0.9-4.9-0.5-7.4c1.3-6.3,0-12.8,1.7-19.1
		c1.6-6.2,3-7,9-4.7c3.8,1.5,7.2,4.1,11.3,5c8.6,4.8,15.8,11.2,21.9,19c3,3.8,3.9,6.8-0.8,9.6c-2.1,2.6-3.7,5.7-7.3,6.5
		c-1.9-1.9,0.1-3,1-4.1c1.3-1.7,3.2-3,4.4-4.7c1.9-2.7,1.4-4.1-1.9-4.1c-1.9,0-2.6-0.9-3.4-2.3c-5.4-9.3-14.3-14-23.5-18.4
		c-3.4-1.6-5.3-0.2-6.3,4c-1.7,7.2,0.2,14.2,1.2,21.3c0.4,2.5,1.3,4.8,1.7,7.3c0.3,1.6,0.7,4-1,4.4c-2.1,0.5-2.3-1.9-2.6-3.4
		c-0.9-3.4-1.9-6.8-2.5-10.3c1.5,8.2,4.3,16.1,7,24c0.6,1.7,0.7,3.8,2.9,4.3c2.5,0.6,4-1.1,5.4-2.8c1.9-2.3,3.7-4.7,6.4-6.3
		c0.8-0.4,1.6-0.5,2.2,0.4c-0.1,2.9-2.6,3.9-4.3,5.5c-3.4,3.1-5.7,7.1-7.8,11.1C212.7,338.1,212.6,339.5,211,339.2z"/>
	<path fill="#FD9416" d="M191,427c0.3,2.1,1.8,2,3.3,2c4.9,0,9.9-0.2,14.8,0c3.1,0.1,4.2-1.1,3.9-4c11.4,3.1,23,5.8,33.1,12.4
		c7.4,4.9,7.7,4.7,12.7-2.8c4.3-6.5,10.1-11.7,13.9-18.6c0.9,0.9,1.9,1.8,2.8,2.8c1.1,1.3,2.1,2-0.2,3.7c-9.8,7-15.4,16.9-19.1,28
		c-0.5,0-0.9,0.1-1,0c-18.1-18.8-40.4-22.9-65-18.8c-1,0.2-2,0.2-3,0.4c-0.4-0.4-0.8-0.8-1.2-1.2C188.3,430.4,188.4,427.2,191,427z"
		/>
	<path fill="#F6CF26" d="M188.2,287c0.6,0,1.2,0,1.8,0c2.2,4.4,1.1,9.4,1.8,14c2.4,16.7,5.7,33.1,10.5,49.3c0.4,1.2,1.2,2.4,0.4,3.7
		c0,0.1-0.3,0.1-0.5,0c-0.1-0.1-0.3-0.2-0.4-0.3C194.6,332,189.7,309.9,188.2,287z"/>
	<path fill="#180C12" d="M220.9,276.2c-1.9,1.4-3-0.5-4.4-1c-2.6-1-5.1-2.3-7.7-3.4c-4-1.7-6.6-1.1-7.3,3.8
		c-0.7,4.7-1.8,9.3-1.6,14.2c0.1,1.7,0.7,3.7-1,5.1c-0.7-6.3-0.4-12.6,0.8-18.8c1.6-8.1,2.4-8.6,10.2-6
		C213.6,272.2,217.3,274.2,220.9,276.2z"/>
	<path fill="#FCDC27" d="M235,311c2.3-2.1,4.6-4.1,7-6.2c0.2,2.4-1.8,3.4-3.1,4.8c-5.6,5.9-11.8,11.1-16.9,17.4
		c-0.3-0.3-0.7-0.6-1-1c1.3-1.7,2.7-3.4,4-5.1C227.5,316.8,230.8,313.5,235,311z"/>
	<path fill="#F7D227" d="M433,428c2-6,1.3-12.2,0.7-18.2c-1.8-18.9-9.2-36.1-17.4-53c-1.2-2.4-0.7-4.6-0.1-6.7
		c4.8-16.2,8-32.7,10.6-49.4c2.1-13.1,1.2-26.5,1.2-39.8c0.3,0.1,0.6,0.1,0.9,0.1c1.4,3.2-0.2,6.7,0.9,9.9
		c0.9,8.7-1.1,17.3-1.7,25.9c-1.2,15.3-4,30.4-8.2,45c-2.5,8.5-2,15.6,2,23.5c7.2,14.5,12.5,29.8,13.7,46.1
		c0.8,10-0.1,19.9-3.6,29.4c-1.9-1.6-0.3-3.4,0.2-4.8c1-2.7-0.4-3.4-2.3-4.1c0.6-0.7,1.3-0.7,2-0.1C433.5,431,432.8,429.4,433,428z"
		/>
	<path fill="#FDBE26" d="M429.9,271c-1.8-3.2-0.4-6.6-0.9-9.9c0.1-0.3,0.1-0.6,0.2-0.9C430.4,263.7,429.7,267.4,429.9,271z"/>
	<path fill="#26100A" d="M358.3,479.2c-11.8,4.7-23.7,3.2-35.6,0.7c-2.3-0.5-3.7-0.2-5.8,0.8c-5.3,2.5-11,2.2-16.3-0.4
		c-2-1-3.5-0.9-5.5-0.5c-11.2,2.4-22.6,3.7-33.9,0.4c-3-0.9-6-1.9-8.4-4.1c-0.1-1.2-1.2-1.5-1.9-2.1c-0.8-0.8-0.7-1.8-0.1-2.7
		c0.5-0.8,1.5-1.1,2.2-0.7c8.3,4.5,12.7-3.2,18.3-6.3c6.1-3.3,11.1-8.3,17-12.1c2.9-1.9,5.8-3.1,9.1-3.5c7.4,4.3,14.8,3.1,22.2,0
		c5.9,1.4,10.8,4.9,15.5,8.5c6.2,4.8,12.6,9.2,19.1,13.6c2.3,1.5,4.3,2.3,6.9,1.2c1.5-0.6,3.6-1.6,4.6,0.1c1.2,2.2-1.5,2.9-2.6,4.1
		C361.8,477.6,359.5,477.4,358.3,479.2z"/>
	<path fill="#5A3020" d="M320.1,449.1c-7.7,4.5-15.4,5.9-23.1,0c-0.1-0.2-0.3-0.4-0.4-0.6c0.1-1.6-1.4-2.8-1-4.4
		c0.3-2.9-0.8-5.6-1.4-8.3c-1.3-6.5,1.5-10.8,8-11.8c3.9-0.6,8-0.6,11.9-0.1c6.7,0.8,10,5.3,8.6,11.9c-0.8,3.8-0.9,7.6-1.4,11.3
		c0,0.6,0,1.2,0,1.8C320.9,449.4,320.5,449.5,320.1,449.1z"/>
	<path fill="#FD8E11" d="M431.9,432c-0.7,0-1.4,0.1-2,0.1c-16.9-3.3-33.4-2.6-49.2,4.6c-8.8,4-16.3,9.5-21.4,17.9
		c-0.4,0.5-0.8,0.6-1.3,0.2c-2.3-12-8.2-21.8-17.4-29.6c-3-2.5-2.7-4.3,0.3-6.3c5.6,6.6,11,13.2,15.1,20.8c2.9,5.4,5.8,5.7,10.8,2.1
		c7.3-5.3,14.9-9.4,23.9-11.4c7.9-1.7,15.7-4.1,23.9-3.3C420.6,427.6,426.7,428.4,431.9,432z"/>
	<path fill="#0E0807" d="M358,454.9c0.4-0.1,0.9-0.1,1.3-0.2c2,0.7,4.2,1.1,6,2.1c8.1,4.7,8.6,12.3,1.2,17.9
		c-2.5,1.9-4.9,3.9-8.2,4.4c-0.7-2.2,1.5-1.9,2.4-2.5c1.8-1.2,3.8-2,4.6-4.2c-0.4-0.2-0.8-0.5-0.9-0.4c-9.1,5.5-14.2-3.1-20-6.7
		c-7.1-4.3-13.6-9.8-20.5-14.5c-1.2-0.8-2.6-1.3-3.8-1.9c0.4-0.1,0.8-0.1,1.2-0.2c7.7-0.7,12.5,4.7,17.9,8.7
		c4.5,3.4,8.6,7.2,13.7,9.7c2.4,1.2,5,1.7,7.7,1.7c2.7,0,4.6-1.1,5.3-3.6c0.8-2.6,0.1-5.1-2.3-6.6c-1.9-1.2-4-2.8-5.7,0.6
		c-0.5,1-1.5,0.5-1.7-0.9C355.8,456.9,356.7,455.8,358,454.9z"/>
	<path fill="#0C0605" d="M296.9,449.1c-9.4,3.6-16.6,10.5-24.6,16.2c-3.6,2.6-7.9,4.2-11.1,7.5c-1.7,1.8-3.9,1-6,0
		c-1.2-0.6-2.7-2.4-3.9-0.8c-1.2,1.5,1.2,2,1.8,3c0.1,0.3-0.2,0.8-0.4,1.2c-4.4-2.3-7.7-5.5-7.2-10.8c0.6-5.6,5.2-7.9,9.5-9.9
		c3.7-1.7,5.6,0,5.4,5c-2.7-3.5-5.4-3.4-8-0.5c-1.6,1.8-2,3.9-1.2,6c0.7,2,2.4,3,4.6,3.2c3.6,0.2,7-0.4,9.8-2.7
		c4.3-3.4,8.5-6.8,12.7-10.3c5.1-4.2,10.7-7.3,17.4-8.3C296.5,447.9,296.6,448.6,296.9,449.1L296.9,449.1z"/>
	<path fill="#160F0C" d="M345.6,410.6c-1.4,0.3-2.8,0.7-5.5,1.4c3-2.4,4.9-3.8,7.8-6c-4.5,0.7-7.7,2.5-11.2,2.2
		c-1.7-0.2-3.7,0.5-5-1.4c-0.1-0.1,0-0.3,0-0.4c0.1-0.1,0.2-0.2,0.4-0.3c10.3-1.1,18.4-6.8,26.4-12.7c6-4.4,10.9-10.2,17.6-13.6
		c1.5-1.2,3.1-2.4,5.1-3.9c-0.4,2.8-2.7,3.9-3.7,5.7c-1.6,1.2-2.2,2.4-1.7,4.6c2,8.6,1.9,8.8-6.8,11.6
		C360.3,400.6,352.7,405.1,345.6,410.6z"/>
	<path fill="#140E0B" d="M238.1,380.9c0-1.3-2-1.7-1.7-3.3c15.8,11.8,28.3,28.8,50.3,31.5c-5.4,2.2-10.4,0.6-15.7-1.2
		c0.7,1.2,1.2,2,1.8,3c-1.1-0.3-1.9-0.5-2.6-0.7c-8.7-6.6-18.1-11.6-28.8-14c-5.2-1.1-3.4-5.5-3.4-8.9
		C238,385.2,240.6,383.1,238.1,380.9z"/>
	<path fill="#452117" d="M321.3,447.1c-2.4-3.8-0.9-7.6,0-11.4c1.3-5.6-0.5-9.3-5.9-10.4c-4.5-0.9-9.3-0.9-13.8,0
		c-5.8,1.2-7.6,4.7-6,10.7c0.8,2.9,2.8,5.8,0.5,8.9c-5.4-3.7-6.5-14.4-2.1-19.9c0.7-0.9,1.6-1.7,2.5-2.4c8.7-1.1,17.5-3.1,25.9,1.7
		c0.6,0.3,0.9,0.7,0.3,0.4c0.4-0.4-0.1-0.9,0-1.3c0.1-0.8,0.6-1.2,1.3-1.4c5.2,5,5.3,13.8,0.2,21.8
		C323.4,445.1,322.2,446,321.3,447.1z"/>
	<path fill="#FD890A" d="M275.9,416.1c3.7,1.2,6.9-0.2,10.4-1.6c14.9-6.1,29.7-5.9,44.1,1.7c2.7,1.4,5.4,2.6,8.6,1.8
		c-1,3.1-2.1,3.9-5.4,1.9c-16.7-10.3-34.2-10.2-51.5-1.6C278.2,420.2,277.1,419.5,275.9,416.1z"/>
	<path fill="#3C1D14" d="M297,423c-5.7,8.6-6,14.8-1,22c0.7,1.2,1.1,2.5,0.9,4c-0.4-0.4-0.8-0.8-1.1-1.3c-4-4.3-5.7-9.6-6.7-15.2
		c-0.9-4.8,0.4-8.8,4.9-11.4c0.5,0.2,1.2,0.3,1.7,0.6C296.3,422.1,296.7,422.4,297,423z"/>
	<path fill="#280909" d="M295.1,422.1c-0.4-0.3-0.7-0.6-1.1-0.9c2.4-2,5.2-1.7,8-1.7c5.4,0,10.9-0.1,16.3,0.1c2.2,0,4.2,0.7,5.7,2.5
		c-0.3,0.3-0.7,0.7-1,1C313.8,421.1,304.4,422.3,295.1,422.1z"/>
	<path fill="#FDB942" d="M391,344.7c-0.3,2,0.9,4.6-1.6,5.8c-2.5,1.2-4.9,0.1-6.9-1.6c-10.4-9.2-22.4-15.8-34.6-22.2
		c-2.3-1.2-4.1-3.4-5.8-5.4c-2.2-2.6-1.1-6.5,2-8.5c5.2-3.4,10.7-2.5,15.8-0.3c12,5.1,21.9,13,28.9,24.1
		C390.3,339.1,391.5,341.7,391,344.7z"/>
	<path fill="#FEFEFD" d="M257.4,362.8c0.2,0,0.4,0.1,0.7,0c6.7,4.3,11.6,10.5,16.9,16.2c0.6,0.8,1.2,1.6,1.8,2.4
		c1,1.4,1.8,2.8,0.4,4.5c-1.3,1.6-2.7,0.7-4,0.1c-8.2-3.9-16.6-7.6-24.2-12.7c-2.3-2.7-2.7-5.6-0.5-8.6
		C250.8,361.7,254,361.5,257.4,362.8z"/>
	<path fill="#FEFEFD" d="M365,373.8c-7.1,4.6-14.8,8.1-22.4,11.7c-1.5,0.7-3.2,2.3-5,0.5c-1.7-1.7-0.3-3.4,0.2-5
		c-0.1-0.5-0.1-1.1,0.2-1.4c5.3-6,10.8-11.7,17.9-15.7C364.3,363.8,367.6,367.4,365,373.8z"/>
	<path fill="#FBBC26" d="M376,379.7c-9.5,9-19.3,17.7-31,23.7c-3.9,2-8.1,4.7-13,2.7c11.5-6.2,22-13.8,32.2-21.8
		C367.7,381.6,371.5,379.9,376,379.7z"/>
	<path fill="#F7C626" d="M371,299c0.4,0,0.8,0,1.2,0.1c1.3,1.5,2.4,3.2,4.2,4.3c1.8,1.7,3.4,3.5,5.4,5c5.3,4.1,10,8.7,14,14
		c2.4,2.7,5,5.3,6.9,8.4c0.9,2.3,2.9,4.2,2.5,7c-2.2,1.3-2.8-1.1-3.7-2c-6.7-6.9-12-15-19.4-21.2c-4.1-3.4-7.9-7-10.6-11.6
		C370.5,301.5,370.1,300.4,371,299z"/>
	<path fill="#FD9010" d="M355,365c-5.5,5.5-12.1,10-17.2,16c-1.8-2.7,0.3-4.4,1.8-6c5.8-6.4,12.1-12.3,20-16.1
		c3.9-1.9,8.8-1.1,11.9,2.1c2.4,2.5,3.4,5.3,1.3,8.5c-0.5,0.7-1,1.4-1.9,0.3c-1.3-9.3-5.1-11-13.7-6
		C356.4,364.2,355.6,364.4,355,365z"/>
	<path fill="#D7E0E9" d="M355,365c2.1-3,4.8-4.8,8.6-5.2c5.2-0.6,11.3,4.2,7.3,10c-1.9,1.4-3.5,3.4-5.9,4
		C365.1,366.4,363.6,365.1,355,365z"/>
	<path fill="#FEDFDE" d="M304.7,384c-1.7-17.9-7.2-34.6-16.2-50.2C299.9,348.6,305.8,365.2,304.7,384z"/>
	<path fill="#FEDEDC" d="M311.5,383.8c-1.5-16,5.9-39.3,16.1-49.3c-4.6,8.7-8.3,16.3-10.9,24.5C314.1,367.2,312.8,375.5,311.5,383.8
		z"/>
	<path fill="#30121B" d="M405.1,337.8c-1.1-2.2-2.2-4.4-3.3-6.6c-0.3-1.2,0.4-1.6,1.3-1.4c4.6,1.2,5.6-2,6.8-5.2
		c2.8-7.4,4.2-15.2,6.8-22.6c0.5-0.3,0.9-0.4,1.4,0c0.1,10.1-4.1,19.2-7.4,28.4c-0.9,2.5-1.9,4.9-2.8,7.3
		C407,339.5,406,339.6,405.1,337.8z"/>
	<path fill="#D5E3F1" d="M257.4,362.8c-8.6,0.6-10.1,2.6-8.4,10.5c-1.1-0.7-2.3-1.2-3.3-2c-2.3-1.9-3.8-4.3-2.5-7.4
		c1.2-2.8,3.7-4,6.7-4.1C252.8,359.8,255.3,360.6,257.4,362.8z"/>
	<path fill="#FD7C06" d="M275,379.1c-6-5-11.4-10.7-16.9-16.2c0.9-1.1,1.8-0.5,2.5,0.3c4.8,4.8,9.6,9.6,14.4,14.4
		C275.5,377.9,275.7,378.5,275,379.1z"/>
	<path fill="#3B1E18" d="M418.1,302c-0.4,0-0.7,0-1.1,0c-0.5-1.2,0.5-2.2,0.6-3.7c-1.3,4.1-1.9,8-2.9,11.7c-0.4,1.4-0.8,2.9-1.9,4
		c-1,0.9-2.1,2-3.5,1.1c-1.2-0.8-0.7-2.2-0.2-3.2c3-6.1,3.2-12.8,4.2-19.4c0.5-3.8,0.6-7.6-0.5-11.4c-0.9-3.2-3-4.5-6-3.1
		c-9.1,4.3-17.6,9.3-23.3,18c-1.1,1.7-2,3.6-4.4,3.4c-3.7-0.3-0.5,4.4-3.4,4.5c-2.1-1-4.2-2.1-3.6-5.1c1.5-0.4,1.9-1.5,1.9-2.9
		c5-7.6,11.5-13.7,19.5-18.1c4.6-2.1,8.6-5.3,13.5-6.9c1.2,0.1,2.3-0.3,3.4-0.6c3.8-1.2,5.9,0.3,6.9,4c0.9,3.5,1.1,7.1,1.2,10.6
		c0.2-1.2-0.4-2.5,0.6-3.5C420.2,288.6,420.8,295.4,418.1,302z"/>
	<path fill="#1B1016" d="M419.1,281.7c-0.1,1.8-0.3,3.5-0.5,6.8c-0.7-4.9-1.1-8.3-1.7-11.6c-0.9-5.3-2.1-6.1-7.7-5.1
		c-0.9,0.2-1.6,0.1-2.2-0.6c1.5-0.7,2.9-1.5,4.5-2.1c3.3-1.2,5.5,0,6.3,3.4C418.5,275.5,419.5,278.6,419.1,281.7z"/>
	<path fill="#F7DA28" d="M393.6,278.1c-7.4,5.1-13.5,11.5-19.5,18.1C378.2,287.6,384.8,281.7,393.6,278.1z"/>
	<path fill="#552718" d="M235,311c-3.3,3.3-6.7,6.7-10,10c-3.7,0.4-5,3.6-6.9,6c-1.8,2.3-3.5,4.5-6.8,4c-3.4-0.5-3.2-3.6-3.9-5.7
		c-2.5-7-4.8-14.1-5.9-21.5c-0.2-1.3-0.3-2.6,0.2-4c1.5,4.8,3.1,9.5,4.6,14.3c-0.1-7-2.3-13.6-2.9-20.5c-0.4-4.8-0.7-9.6,0.8-14.3
		c0.8-2.2,1.9-4.9,5.3-3.7c9.4,3.3,17.2,9.1,24.2,16c1.1,1,2.2,2.5,2.3,4.3c0,1.1,0.5,2,1.9,1.3c1.4-0.7,2.6-3.4,4.1-0.2
		c1.1,2.3,0.8,4.2-0.9,6.3C239.1,306,235.3,307.1,235,311z"/>
	<path fill="#421B11" d="M319.5,474.9c-5.5-0.9-1.8,5.9-6.5,5.1c-3.1-0.5-6.3-0.3-9.4-0.5c-4.1-0.3,0.7-6.4-4.7-4.7
		C306.4,467.5,308.2,467.5,319.5,474.9z"/>
	<path fill="#331814" d="M360,399c4.1-5.1,8.2-9.1,13.1-12.2c3.3,4.7,2.6,7.8-2.6,8.8C367.1,396.2,364.3,398.6,360,399z"/>
	<path fill="#351915" d="M256.4,398.9c-5.4-1.6-9.6-2.7-13.8-4.1c-2.2-0.7-3.7-7.3-2.1-9.1c1.1-1.2,2.2-0.6,3,0.3
		C247.5,390.1,251.5,394.1,256.4,398.9z"/>
	<path fill="#5A3020" d="M295.1,422.1c9.3-1.3,18.7-2.7,27.8,1c0.9,1.7,2.7,2.9,2.5,6.1c-6.1-9.1-14.8-5.5-22.5-6.2c-2-0.2-4,0-6,0
		C296.3,423,295.5,422.9,295.1,422.1z"/>
	<path fill="#552718" d="M375.8,304.1c1-1.6-0.8-3.3,0.1-4.9c0.5-0.8,0.5-2.5,1.7-1.6c3.7,2.7,3.7-0.6,5-2.6
		c6.3-9.1,15.4-14.5,25.2-18.7c3-1.3,5.4,0.3,6.1,3.9c2.2,10.6,0.1,20.7-3,30.8c-0.4,1.2-1.6,2.1-1,4.3c5.9-5.4,4.9-13,7.5-19.1
		c0.9,2,0.3,3.9-0.6,5.9c-0.8,9.3-4.3,17.8-7.2,26.5c-1.6,4.9-5.1,2.7-8,2.8c-2.2-2.8-4.5-5.5-6.7-8.3c-3.6-5.8-8.3-10.5-14.1-14.1
		C379.3,307.3,377.5,305.7,375.8,304.1z"/>
	<path fill="#2E0E1B" d="M381,308.9c0.2-0.2,0.6-0.6,0.7-0.6c5.5,3.8,10.1,8.4,13.9,13.9c0,0.1-0.4,0.5-0.6,0.7
		C390.4,318.3,385.7,313.6,381,308.9z"/>
</g>
</svg>
